<svg xmlns="http://www.w3.org/2000/svg" width="48" height="48" fill="none">
    <path fill="#fff"
          d="M8.231 39.385V21.23h-.192a2.93 2.93 0 0 1-2.152-.887A2.93 2.93 0 0 1 5 18.193v-4.347c0-.843.295-1.56.886-2.151a2.93 2.93 0 0 1 2.153-.887h7.303a2.629 2.629 0 0 1-.575-1.1 5.309 5.309 0 0 1-.151-1.285c0-1.496.523-2.767 1.57-3.814C17.233 3.562 18.504 3.04 20 3.04c.767 0 1.477.16 2.131.482a6.214 6.214 0 0 1 1.753 1.29 5.713 5.713 0 0 1 1.755-1.305 4.886 4.886 0 0 1 2.13-.467c1.496 0 2.768.523 3.815 1.57 1.046 1.047 1.57 2.318 1.57 3.814 0 .444-.056.866-.168 1.266-.111.4-.298.773-.559 1.12h7.535a2.93 2.93 0 0 1 2.151.886A2.93 2.93 0 0 1 43 13.846v4.347a2.93 2.93 0 0 1-.886 2.151 2.93 2.93 0 0 1-2.152.887h-.193v18.154c0 .994-.354 1.845-1.062 2.553-.708.708-1.559 1.062-2.553 1.062H11.846c-.994 0-1.845-.354-2.553-1.062-.708-.708-1.062-1.56-1.062-2.553ZM27.769 6.039c-.676 0-1.242.228-1.699.685-.457.457-.686 1.023-.686 1.7 0 .675.229 1.241.686 1.698.457.457 1.023.686 1.699.686.676 0 1.242-.229 1.7-.686.456-.457.685-1.023.685-1.699 0-.676-.229-1.242-.686-1.699-.457-.457-1.023-.685-1.699-.685ZM17.616 8.423c0 .676.228 1.242.685 1.7.457.456 1.023.685 1.699.685.676 0 1.242-.229 1.699-.686.457-.457.685-1.023.685-1.699 0-.676-.228-1.242-.685-1.699-.457-.457-1.023-.685-1.699-.685-.676 0-1.242.228-1.699.685-.457.457-.685 1.023-.685 1.7ZM8 13.808v4.423h14.5v-4.423H8ZM22.5 40V21.23H11.23v18.155c0 .18.058.327.174.442a.599.599 0 0 0 .442.173H22.5Zm3 0h10.654c.18 0 .327-.058.442-.173a.598.598 0 0 0 .174-.442V21.23H25.5V40ZM40 18.231v-4.423H25.5v4.423H40Z"/>
</svg>
