<svg xmlns="http://www.w3.org/2000/svg" width="38" height="38" fill="none">
    <path fill="#D9D9D9"
          d="m19 0 6.035 4.43 7.4 1.135 1.135 7.4L38 19l-4.43 6.035-1.135 7.4-7.4 1.135L19 38l-6.035-4.43-7.4-1.135-1.135-7.4L0 19l4.43-6.035 1.135-7.4 7.4-1.135L19 0Z"/>
    <path fill="url(#a)"
          d="m19 0 6.035 4.43 7.4 1.135 1.135 7.4L38 19l-4.43 6.035-1.135 7.4-7.4 1.135L19 38l-6.035-4.43-7.4-1.135-1.135-7.4L0 19l4.43-6.035 1.135-7.4 7.4-1.135L19 0Z"/>
    <path fill="#fff" fill-rule="evenodd"
          d="M26.719 14.284a.978.978 0 0 1 0 1.373l-8.96 9.059a.952.952 0 0 1-1.358 0l-5.12-5.177a.978.978 0 0 1 0-1.372.952.952 0 0 1 1.358 0l4.441 4.49 8.281-8.373a.952.952 0 0 1 1.358 0Z"
          clip-rule="evenodd"/>
    <defs>
        <radialGradient id="a" cx="0" cy="0" r="1" gradientTransform="matrix(19 0 0 19 19 19)"
                        gradientUnits="userSpaceOnUse">
            <stop stop-color="#33B864"/>
            <stop offset="1" stop-color="#198E44"/>
        </radialGradient>
    </defs>
</svg>
