<svg xmlns="http://www.w3.org/2000/svg" width="25" height="24" fill="none">
    <path fill="#000" fill-rule="evenodd"
          d="M7.5 3.25a.75.75 0 0 1 .75.75v1.668a47.91 47.91 0 0 1 8.5 0V4a.75.75 0 0 1 1.5 0v1.816a3.375 3.375 0 0 1 2.872 2.899l.087.653c.364 2.746.332 5.53-.094 8.268a3.01 3.01 0 0 1-2.678 2.532l-1.193.118a48.345 48.345 0 0 1-9.488 0l-1.193-.118a3.01 3.01 0 0 1-2.679-2.532 28.995 28.995 0 0 1-.093-8.268l.087-.653A3.375 3.375 0 0 1 6.75 5.816V4a.75.75 0 0 1 .75-.75Zm.445 3.953c3.03-.299 6.08-.299 9.11 0l.905.09c.867.085 1.56.756 1.675 1.619l.087.653c.03.228.057.456.082.685H5.196c.024-.229.052-.457.082-.685l.087-.653a1.875 1.875 0 0 1 1.675-1.62l.905-.09ZM5.077 11.75a27.495 27.495 0 0 0 .29 5.655 1.51 1.51 0 0 0 1.343 1.27l1.193.118c3.057.302 6.137.302 9.194 0l1.193-.118a1.51 1.51 0 0 0 1.343-1.27c.291-1.872.388-3.767.29-5.655H5.077Z"
          clip-rule="evenodd"/>
    <path fill="url(#a)" fill-rule="evenodd"
          d="M7.5 3.25a.75.75 0 0 1 .75.75v1.668a47.91 47.91 0 0 1 8.5 0V4a.75.75 0 0 1 1.5 0v1.816a3.375 3.375 0 0 1 2.872 2.899l.087.653c.364 2.746.332 5.53-.094 8.268a3.01 3.01 0 0 1-2.678 2.532l-1.193.118a48.345 48.345 0 0 1-9.488 0l-1.193-.118a3.01 3.01 0 0 1-2.679-2.532 28.995 28.995 0 0 1-.093-8.268l.087-.653A3.375 3.375 0 0 1 6.75 5.816V4a.75.75 0 0 1 .75-.75Zm.445 3.953c3.03-.299 6.08-.299 9.11 0l.905.09c.867.085 1.56.756 1.675 1.619l.087.653c.03.228.057.456.082.685H5.196c.024-.229.052-.457.082-.685l.087-.653a1.875 1.875 0 0 1 1.675-1.62l.905-.09ZM5.077 11.75a27.495 27.495 0 0 0 .29 5.655 1.51 1.51 0 0 0 1.343 1.27l1.193.118c3.057.302 6.137.302 9.194 0l1.193-.118a1.51 1.51 0 0 0 1.343-1.27c.291-1.872.388-3.767.29-5.655H5.077Z"
          clip-rule="evenodd"/>
    <defs>
        <radialGradient id="a" cx="0" cy="0" r="1" gradientTransform="matrix(8.96023 0 0 8.63456 12.5 11.885)"
                        gradientUnits="userSpaceOnUse">
            <stop stop-color="#33B864"/>
            <stop offset="1" stop-color="#198E44"/>
        </radialGradient>
    </defs>
</svg>
